<?xml version="1.0" encoding="utf-8"?>
<!-- Generator: Adobe Illustrator 16.0.0, SVG Export Plug-In . SVG Version: 6.00 Build 0)  -->
<!DOCTYPE svg PUBLIC "-//W3C//DTD SVG 1.1//EN" "http://www.w3.org/Graphics/SVG/1.1/DTD/svg11.dtd">
<svg version="1.1" id="Layer_1" xmlns="http://www.w3.org/2000/svg" xmlns:xlink="http://www.w3.org/1999/xlink" x="0px" y="0px"
	 width="736.15px" height="323.475px" viewBox="0 0 736.15 323.475" enable-background="new 0 0 736.15 323.475"
	 xml:space="preserve">
<image display="none" overflow="visible" enable-background="new    " width="814" height="392" xlink:href="33A1A6604383072B.png"  transform="matrix(1 0 0 1 -35.7043 -45.3982)">
</image>
<g>
	
		<image overflow="visible" opacity="0.45" enable-background="new    " width="491" height="228" xlink:href="33A1A66043830729.png"  transform="matrix(1 0 0 1 14.575 18.2385)">
	</image>
	<g>
		<g>
			<g enable-background="new    ">
				<path fill="#AFFD89" d="M193.448,173.346c0,34.641-27.175,63.311-61.518,65.399v0.299H68.024
					c-26.28,0-47.781-21.501-47.781-47.781v-83.616h77.645c9.854,0,17.918-8.062,17.918-17.917c0-10.153-8.063-17.918-17.918-17.918
					H68.024c-26.28,0-47.781-21.502-47.781-47.78h77.645c6.271,0,12.243,0.598,17.918,2.39c27.474,7.764,47.78,33.146,47.78,63.31
					c0,8.958-1.792,17.619-5.077,25.384C179.114,126.163,193.448,147.963,193.448,173.346z M145.667,173.346
					c0-10.153-8.062-17.918-17.917-17.918H68.024v35.835h59.726C137.604,191.263,145.667,183.201,145.667,173.346z"/>
				<path fill="#AFFD89" d="M213.749,191.263V24.031c26.279,0,47.781,21.502,47.781,47.78v167.232
					C235.25,239.045,213.749,217.544,213.749,191.263z"/>
				<path fill="#AFFD89" d="M497.743,131.538c0,59.428-48.08,107.507-107.507,107.507c-59.428,0-107.507-48.079-107.507-107.507
					S330.808,24.031,390.236,24.031C449.663,24.031,497.743,72.111,497.743,131.538z M449.963,131.538
					c0-32.851-26.877-59.727-59.727-59.727c-33.147,0-59.727,26.876-59.727,59.727c0,33.147,26.578,59.726,59.727,59.726
					C423.086,191.263,449.963,164.686,449.963,131.538z"/>
			</g>
		</g>
	</g>
</g>
<g>
	
		<image overflow="visible" opacity="0.45" enable-background="new    " width="205" height="75" xlink:href="33A1A6604383072F.png"  transform="matrix(1 0 0 1 274.575 235.2385)">
	</image>
	<g>
		<g>
			<g enable-background="new    ">
				<path fill="#AFFD89" d="M472.344,240.93c2.11,25.049-15.712,47.193-39.608,49.209l-152.063,12.83
					c-2.11-25.049,15.712-47.193,39.607-49.21L472.344,240.93z"/>
			</g>
		</g>
	</g>
</g>
<g>
	
		<image overflow="visible" opacity="0.45" enable-background="new    " width="212" height="227" xlink:href="33A1A66043830728.png"  transform="matrix(1 0 0 1 506.575 19.2385)">
	</image>
	<g>
		<g>
			<g enable-background="new    ">
				<path fill="#C0FCF3" d="M710.844,24.335V238.67h-52.633v-80.375h-92.911v80.375h-53.17V76.847l53.17-52.512v80.911h92.912
					V24.335H710.844z"/>
			</g>
		</g>
	</g>
</g>
</svg>
